<svg width="194" height="66" viewBox="0 0 194 66" fill="none" xmlns="http://www.w3.org/2000/svg">
<path opacity="0.33" d="M16.5384 64.8334C30.9761 60.4183 45.2117 52.863 57.689 43.2686C66.172 36.7471 65.5162 26.5634 60.1596 21.1979C53.2672 14.2903 37.9979 5.00322 26.238 0.877164C16.69 -2.47098 7.86857 4.12821 5.28175 14.5096C3.76301 20.6027 2.54135 26.8067 1.64101 33.0997C0.787161 39.0626 0.248578 44.4966 0.0181894 50.2859C-0.417325 61.1939 7.02179 67.7451 16.5384 64.8334Z" fill="white"/>
<path opacity="0.48" d="M17.5861 62.6698C31.0497 58.5518 44.3243 51.5071 55.9599 42.5604C63.8709 36.4787 63.2586 26.9826 58.2638 21.9793C51.8362 15.5377 37.5976 6.87666 26.6309 3.02932C17.7276 -0.0937791 9.50132 6.0599 7.08931 15.7411C5.67262 21.423 4.53382 27.2088 3.69411 33.0769C2.89786 38.6377 2.39565 43.705 2.18042 49.1036C1.77421 59.276 8.71112 65.3851 17.5861 62.6698Z" fill="#FFFFD0"/>
<path opacity="0.44" d="M18.5232 60.7335C31.1148 56.8828 43.5305 50.2939 54.4133 41.9252C61.812 36.2365 61.2401 27.3561 56.5686 22.676C50.5573 16.6514 37.2403 8.55122 26.9829 4.95291C18.6556 2.03314 10.9619 7.78815 8.70647 16.8422C7.38174 22.1562 6.3167 27.5674 5.53055 33.0563C4.78583 38.2572 4.31596 42.9967 4.11487 48.0458C3.73493 57.5602 10.2232 63.274 18.5232 60.7335Z" fill="white"/>
<path d="M19.7915 58.1144C31.2038 54.6235 42.4575 48.6526 52.3207 41.0676C59.0262 35.9123 58.5079 27.8624 54.274 23.621C48.8255 18.1595 36.7554 10.819 27.459 7.55765C19.9117 4.9109 12.9385 10.1279 10.8933 18.3343C9.69281 23.1515 8.72679 28.0554 8.01542 33.0302C7.34042 37.7446 6.91501 42.0397 6.73211 46.6158C6.38754 55.2392 12.2685 60.4174 19.7915 58.1156V58.1144Z" fill="#123274"/>
<path d="M34.9857 26.754L34.8735 27.6667C34.3026 26.9265 33.567 26.5347 32.4514 26.5347C29.1502 26.5347 27.3485 29.9948 27.4162 33.6936C27.4758 36.8921 28.8733 38.2857 31.0165 38.2857C32.1533 38.2857 32.9597 37.8939 33.7185 37.1537L33.6276 38.0675H37.6796L39.0569 26.7529H34.9837L34.9857 26.754ZM32.6131 35.3499C31.9906 35.3499 31.6157 34.7628 31.5945 33.5439C31.5632 31.8899 32.1624 29.475 33.3194 29.475C33.9621 29.475 34.338 30.0839 34.3612 31.3461C34.3915 32.9785 33.7913 35.3488 32.6131 35.3488V35.3499Z" fill="#FFD100"/>
<path d="M43.8334 29.9083C43.8284 29.5827 44.3397 29.4719 44.9409 29.4719C46.1838 29.4719 47.2438 29.9505 47.937 30.3424L48.3291 27.1861C47.5742 26.9245 46.4526 26.5327 44.8651 26.5327C41.7569 26.5327 39.5308 27.9252 39.5783 30.5354C39.643 34.0595 43.7546 33.7339 43.7708 34.6706C43.7759 34.9539 43.4586 35.1275 42.7724 35.1275C41.8731 35.1275 40.4736 34.8442 39.2772 33.9315L38.87 37.4133C40.124 38.0222 41.4588 38.2838 42.7017 38.2838C45.9817 38.2838 48.0734 36.6297 48.0259 34.04C47.9592 30.4714 43.8496 30.797 43.8334 29.9048V29.9083Z" fill="#FFD100"/>
<path d="M20.2862 45.9213H24.2614L24.9041 42.6177H20.6146L20.2862 45.9213Z" fill="#FFD100"/>
<path d="M21.7991 34.5311L21.1291 41.0366H24.8416L27.9903 24.3667H22.9945V24.3713L22.9136 24.9995C22.08 31.1921 20.9331 33.2654 20.249 32.9649C18.9354 32.3869 19.8206 27.2305 20.5592 24.3667H15.6342C15.0562 26.6045 14.6833 29.811 14.8248 31.834C15.0077 34.4317 16.3142 36.7734 18.6211 36.7734C19.8074 36.7734 20.8795 36.0618 21.7981 34.5311H21.7991Z" fill="#FFD100"/>
<path d="M83.0669 7.13246C83.9069 7.13246 84.6419 7.24246 85.2719 7.46246C85.9019 7.68246 86.3869 7.99246 86.7269 8.39246C87.0669 8.79246 87.2369 9.25746 87.2369 9.78746C87.2369 10.3075 87.0769 10.7725 86.7569 11.1825C86.4369 11.5925 86.0069 11.8775 85.4669 12.0375C86.0969 12.1775 86.6019 12.4925 86.9819 12.9825C87.3619 13.4625 87.5519 14.0325 87.5519 14.6925C87.5519 15.2825 87.3769 15.8025 87.0269 16.2525C86.6769 16.7025 86.1819 17.0475 85.5419 17.2875C84.9119 17.5275 84.1719 17.6475 83.3219 17.6475H77.7419V7.13246H83.0669ZM82.8719 11.1825C83.1119 11.1825 83.3019 11.1125 83.4419 10.9725C83.5919 10.8325 83.6669 10.6475 83.6669 10.4175C83.6669 10.1975 83.5919 10.0225 83.4419 9.89246C83.3019 9.75246 83.1119 9.68246 82.8719 9.68246H81.2069V11.1825H82.8719ZM82.8719 15.0975C83.1919 15.0975 83.4469 15.0225 83.6369 14.8725C83.8369 14.7125 83.9369 14.5075 83.9369 14.2575C83.9369 14.0275 83.8369 13.8425 83.6369 13.7025C83.4469 13.5625 83.1919 13.4925 82.8719 13.4925H81.2069V15.0975H82.8719ZM97.2364 14.9775V17.6475H89.0014V15.4575L92.6614 11.6475C92.8914 11.4075 93.0764 11.1675 93.2164 10.9275C93.3664 10.6875 93.4414 10.4825 93.4414 10.3125C93.4414 10.1325 93.3814 9.99746 93.2614 9.90746C93.1414 9.80746 92.9664 9.75746 92.7364 9.75746C92.3464 9.75746 91.9014 9.87746 91.4014 10.1175C90.9014 10.3575 90.3914 10.6875 89.8714 11.1075L88.5814 8.60246C90.1814 7.51246 91.7464 6.96746 93.2764 6.96746C93.9964 6.96746 94.6464 7.08746 95.2264 7.32746C95.8064 7.56746 96.2614 7.90246 96.5914 8.33246C96.9214 8.76246 97.0864 9.25246 97.0864 9.80246C97.0864 10.3725 96.9064 10.9475 96.5464 11.5275C96.1864 12.1075 95.6814 12.7225 95.0314 13.3725L93.4114 14.9775H97.2364ZM104.424 7.13246C105.264 7.13246 105.999 7.24246 106.629 7.46246C107.259 7.68246 107.744 7.99246 108.084 8.39246C108.424 8.79246 108.594 9.25746 108.594 9.78746C108.594 10.3075 108.434 10.7725 108.114 11.1825C107.794 11.5925 107.364 11.8775 106.824 12.0375C107.454 12.1775 107.959 12.4925 108.339 12.9825C108.719 13.4625 108.909 14.0325 108.909 14.6925C108.909 15.2825 108.734 15.8025 108.384 16.2525C108.034 16.7025 107.539 17.0475 106.899 17.2875C106.269 17.5275 105.529 17.6475 104.679 17.6475H99.0993V7.13246H104.424ZM104.229 11.1825C104.469 11.1825 104.659 11.1125 104.799 10.9725C104.949 10.8325 105.024 10.6475 105.024 10.4175C105.024 10.1975 104.949 10.0225 104.799 9.89246C104.659 9.75246 104.469 9.68246 104.229 9.68246H102.564V11.1825H104.229ZM104.229 15.0975C104.549 15.0975 104.804 15.0225 104.994 14.8725C105.194 14.7125 105.294 14.5075 105.294 14.2575C105.294 14.0275 105.194 13.8425 104.994 13.7025C104.804 13.5625 104.549 13.4925 104.229 13.4925H102.564V15.0975H104.229ZM120.562 11.2425C120.252 10.8125 119.877 10.4675 119.437 10.2075C119.007 9.93746 118.587 9.80246 118.177 9.80246C117.767 9.80246 117.392 9.91246 117.052 10.1325C116.722 10.3425 116.462 10.6375 116.272 11.0175C116.092 11.3975 116.002 11.8275 116.002 12.3075C116.002 12.7875 116.092 13.2225 116.272 13.6125C116.462 13.9925 116.722 14.2925 117.052 14.5125C117.392 14.7325 117.767 14.8425 118.177 14.8425C118.557 14.8425 118.962 14.7325 119.392 14.5125C119.832 14.2825 120.222 13.9825 120.562 13.6125L122.572 15.7575C121.982 16.4075 121.272 16.9275 120.442 17.3175C119.622 17.6975 118.807 17.8875 117.997 17.8875C116.937 17.8875 115.982 17.6525 115.132 17.1825C114.292 16.7025 113.632 16.0425 113.152 15.2025C112.672 14.3525 112.432 13.4025 112.432 12.3525C112.432 11.3125 112.677 10.3825 113.167 9.56246C113.657 8.73246 114.332 8.08246 115.192 7.61246C116.062 7.14246 117.042 6.90746 118.132 6.90746C118.932 6.90746 119.737 7.08746 120.547 7.44746C121.357 7.79746 122.032 8.26746 122.572 8.85746L120.562 11.2425ZM127.247 9.32246C128.177 9.32246 128.992 9.49746 129.692 9.84746C130.392 10.1875 130.932 10.6775 131.312 11.3175C131.692 11.9475 131.882 12.6875 131.882 13.5375C131.882 14.3875 131.692 15.1325 131.312 15.7725C130.932 16.4025 130.392 16.8925 129.692 17.2425C128.992 17.5925 128.177 17.7675 127.247 17.7675C126.317 17.7675 125.502 17.5925 124.802 17.2425C124.102 16.8925 123.562 16.4025 123.182 15.7725C122.802 15.1325 122.612 14.3875 122.612 13.5375C122.612 12.6875 122.802 11.9475 123.182 11.3175C123.562 10.6775 124.102 10.1875 124.802 9.84746C125.502 9.49746 126.317 9.32246 127.247 9.32246ZM127.247 11.9925C126.877 11.9925 126.577 12.1375 126.347 12.4275C126.127 12.7175 126.017 13.1025 126.017 13.5825C126.017 14.0625 126.127 14.4475 126.347 14.7375C126.577 15.0275 126.877 15.1725 127.247 15.1725C127.617 15.1725 127.912 15.0275 128.132 14.7375C128.362 14.4475 128.477 14.0625 128.477 13.5825C128.477 13.1025 128.362 12.7175 128.132 12.4275C127.912 12.1375 127.617 11.9925 127.247 11.9925ZM138.999 12.4125C137.779 11.8125 136.854 11.5125 136.224 11.5125C136.084 11.5125 135.969 11.5375 135.879 11.5875C135.799 11.6375 135.759 11.7025 135.759 11.7825C135.759 11.9025 135.849 12.0025 136.029 12.0825C136.209 12.1625 136.509 12.2575 136.929 12.3675C137.519 12.5275 138.024 12.6925 138.444 12.8625C138.864 13.0325 139.229 13.2925 139.539 13.6425C139.859 13.9925 140.019 14.4475 140.019 15.0075C140.019 15.5675 139.864 16.0575 139.554 16.4775C139.254 16.8975 138.824 17.2225 138.264 17.4525C137.704 17.6825 137.049 17.7975 136.299 17.7975C134.769 17.7975 133.434 17.4075 132.294 16.6275L133.314 14.5275C134.414 15.2075 135.424 15.5475 136.344 15.5475C136.504 15.5475 136.629 15.5275 136.719 15.4875C136.809 15.4375 136.854 15.3775 136.854 15.3075C136.854 15.1975 136.764 15.1075 136.584 15.0375C136.414 14.9575 136.134 14.8675 135.744 14.7675C135.154 14.6175 134.654 14.4575 134.244 14.2875C133.834 14.1175 133.469 13.8575 133.149 13.5075C132.839 13.1575 132.684 12.6975 132.684 12.1275C132.684 11.5575 132.834 11.0625 133.134 10.6425C133.434 10.2125 133.854 9.88246 134.394 9.65246C134.944 9.41246 135.579 9.29246 136.299 9.29246C137.609 9.29246 138.879 9.63746 140.109 10.3275L138.999 12.4125ZM147.065 17.2875C146.795 17.4475 146.44 17.5725 146 17.6625C145.57 17.7525 145.13 17.7975 144.68 17.7975C143.76 17.7975 143.02 17.5475 142.46 17.0475C141.91 16.5375 141.635 15.8575 141.635 15.0075V12.0225H140.51V9.89246H141.635V7.59746H144.995V9.89246H146.915V12.0225H144.995V14.4975C144.995 14.7175 145.055 14.8925 145.175 15.0225C145.295 15.1425 145.455 15.1975 145.655 15.1875C145.845 15.1875 146.125 15.1175 146.495 14.9775L147.065 17.2875ZM156.545 9.44246V17.6475H153.17V16.5075C152.9 16.9275 152.56 17.2475 152.15 17.4675C151.74 17.6875 151.275 17.7975 150.755 17.7975C150.195 17.7975 149.7 17.6675 149.27 17.4075C148.84 17.1475 148.5 16.7825 148.25 16.3125C148.01 15.8425 147.89 15.2975 147.89 14.6775V9.44246H151.265V13.7025C151.265 14.0425 151.345 14.3175 151.505 14.5275C151.675 14.7275 151.895 14.8275 152.165 14.8275C152.475 14.8275 152.72 14.7075 152.9 14.4675C153.08 14.2275 153.17 13.9075 153.17 13.5075V9.44246H156.545ZM169.353 9.29246C169.913 9.29246 170.413 9.42246 170.853 9.68246C171.293 9.94246 171.633 10.3075 171.873 10.7775C172.123 11.2475 172.248 11.7925 172.248 12.4125V17.6475H168.873V13.3875C168.873 13.0475 168.788 12.7775 168.618 12.5775C168.448 12.3675 168.223 12.2625 167.943 12.2625C167.633 12.2625 167.383 12.3825 167.193 12.6225C167.003 12.8625 166.908 13.1825 166.908 13.5825V17.6475H163.533V13.3875C163.533 13.0475 163.448 12.7775 163.278 12.5775C163.108 12.3675 162.883 12.2625 162.603 12.2625C162.293 12.2625 162.043 12.3825 161.853 12.6225C161.663 12.8625 161.568 13.1825 161.568 13.5825V17.6475H158.193V9.44246H161.568V10.5975C161.848 10.1775 162.193 9.85746 162.603 9.63746C163.023 9.40746 163.493 9.29246 164.013 9.29246C164.633 9.29246 165.173 9.44746 165.633 9.75746C166.103 10.0675 166.448 10.4975 166.668 11.0475C166.938 10.4875 167.298 10.0575 167.748 9.75746C168.208 9.44746 168.743 9.29246 169.353 9.29246ZM177.456 9.32246C178.356 9.32246 179.136 9.50746 179.796 9.87746C180.456 10.2475 180.961 10.7775 181.311 11.4675C181.661 12.1475 181.836 12.9475 181.836 13.8675C181.836 14.0575 181.831 14.2025 181.821 14.3025H176.481C176.591 14.6225 176.761 14.8675 176.991 15.0375C177.231 15.1975 177.516 15.2775 177.846 15.2775C178.436 15.2775 178.991 15.0325 179.511 14.5425L181.266 16.2675C180.826 16.7575 180.291 17.1325 179.661 17.3925C179.041 17.6425 178.336 17.7675 177.546 17.7675C176.626 17.7675 175.826 17.5975 175.146 17.2575C174.476 16.9075 173.961 16.4175 173.601 15.7875C173.251 15.1575 173.076 14.4225 173.076 13.5825C173.076 12.7225 173.256 11.9725 173.616 11.3325C173.976 10.6925 174.486 10.1975 175.146 9.84746C175.816 9.49746 176.586 9.32246 177.456 9.32246ZM178.446 12.7425C178.466 12.4025 178.381 12.1225 178.191 11.9025C178.011 11.6825 177.776 11.5725 177.486 11.5725C177.206 11.5725 176.971 11.6775 176.781 11.8875C176.601 12.0975 176.476 12.3825 176.406 12.7425H178.446ZM186.265 10.6425C186.555 10.2125 186.91 9.88246 187.33 9.65246C187.76 9.41246 188.24 9.29246 188.77 9.29246V12.3375C188.55 12.3075 188.335 12.2925 188.125 12.2925C187.545 12.2925 187.09 12.4225 186.76 12.6825C186.43 12.9325 186.265 13.2825 186.265 13.7325V17.6475H182.89V9.44246H186.265V10.6425Z" fill="white"/>
<path d="M81.3688 24.8775C82.1888 24.8775 82.9938 24.9925 83.7838 25.2225C84.5738 25.4525 85.2538 25.7575 85.8238 26.1375L84.2788 28.7925C83.7488 28.4625 83.1438 28.1725 82.4638 27.9225C81.7938 27.6725 81.2388 27.5475 80.7988 27.5475C80.5888 27.5475 80.4188 27.5875 80.2888 27.6675C80.1688 27.7475 80.1088 27.8725 80.1088 28.0425C80.1088 28.2625 80.2338 28.4375 80.4838 28.5675C80.7438 28.6975 81.1488 28.8375 81.6988 28.9875C82.3788 29.1875 82.9388 29.3875 83.3788 29.5875C83.8288 29.7875 84.2188 30.0925 84.5488 30.5025C84.8788 30.9125 85.0438 31.4525 85.0438 32.1225C85.0438 32.9425 84.8238 33.6375 84.3838 34.2075C83.9538 34.7675 83.3738 35.1825 82.6438 35.4525C81.9238 35.7225 81.1288 35.8575 80.2588 35.8575C79.3288 35.8575 78.4038 35.7075 77.4838 35.4075C76.5738 35.0975 75.7988 34.6775 75.1588 34.1475L76.7188 31.5225C77.1988 31.9825 77.8188 32.3775 78.5788 32.7075C79.3488 33.0275 80.0038 33.1875 80.5438 33.1875C80.8238 33.1875 81.0438 33.1375 81.2038 33.0375C81.3638 32.9275 81.4438 32.7675 81.4438 32.5575C81.4438 32.3275 81.3138 32.1525 81.0538 32.0325C80.7938 31.9025 80.3788 31.7625 79.8088 31.6125C79.1388 31.4325 78.5788 31.2475 78.1288 31.0575C77.6888 30.8675 77.3038 30.5775 76.9738 30.1875C76.6538 29.7875 76.4938 29.2675 76.4938 28.6275C76.4938 27.8775 76.6988 27.2175 77.1088 26.6475C77.5188 26.0775 78.0888 25.6425 78.8188 25.3425C79.5588 25.0325 80.4088 24.8775 81.3688 24.8775ZM91.3646 27.3375C92.2246 27.3375 92.9746 27.4975 93.6146 27.8175C94.2546 28.1275 94.7446 28.5725 95.0846 29.1525C95.4346 29.7225 95.6096 30.3825 95.6096 31.1325C95.6096 31.5025 95.5646 31.8925 95.4746 32.3025H90.0446C90.1546 32.9625 90.5846 33.2925 91.3346 33.2925C91.9046 33.2925 92.4546 33.0875 92.9846 32.6775L94.7246 34.3875C93.7546 35.2975 92.5846 35.7525 91.2146 35.7525C90.3046 35.7525 89.5096 35.6025 88.8296 35.3025C88.1596 35.0025 87.6396 34.5725 87.2696 34.0125C86.9096 33.4525 86.7296 32.8025 86.7296 32.0625C86.7296 31.1625 86.9246 30.3525 87.3146 29.6325C87.7146 28.9125 88.2646 28.3525 88.9646 27.9525C89.6746 27.5425 90.4746 27.3375 91.3646 27.3375ZM92.3396 30.7425C92.3896 30.6125 92.4146 30.4975 92.4146 30.3975C92.4146 30.1775 92.3396 29.9925 92.1896 29.8425C92.0396 29.6925 91.8446 29.6175 91.6046 29.6175C91.3446 29.6175 91.0946 29.7225 90.8546 29.9325C90.6246 30.1325 90.4346 30.4025 90.2846 30.7425H92.3396ZM102.735 24.5175L100.515 35.6475H97.1403L99.3603 24.5175H102.735ZM110.081 26.9775C109.821 26.9775 109.586 27.0625 109.376 27.2325C109.166 27.3925 109.036 27.5825 108.986 27.8025L108.971 27.8925H110.546L110.126 30.0225H108.536L107.411 35.6475H104.051L105.176 30.0225H104.051L104.471 27.8925H105.596L105.776 27.0225C105.946 26.1825 106.356 25.5325 107.006 25.0725C107.666 24.6025 108.486 24.3675 109.466 24.3675C110.176 24.3675 110.866 24.4825 111.536 24.7125L110.741 27.1125C110.621 27.0725 110.501 27.0425 110.381 27.0225C110.261 26.9925 110.161 26.9775 110.081 26.9775ZM121.002 24.8775C121.822 24.8775 122.627 24.9925 123.417 25.2225C124.207 25.4525 124.887 25.7575 125.457 26.1375L123.912 28.7925C123.382 28.4625 122.777 28.1725 122.097 27.9225C121.427 27.6725 120.872 27.5475 120.432 27.5475C120.222 27.5475 120.052 27.5875 119.922 27.6675C119.802 27.7475 119.742 27.8725 119.742 28.0425C119.742 28.2625 119.867 28.4375 120.117 28.5675C120.377 28.6975 120.782 28.8375 121.332 28.9875C122.012 29.1875 122.572 29.3875 123.012 29.5875C123.462 29.7875 123.852 30.0925 124.182 30.5025C124.512 30.9125 124.677 31.4525 124.677 32.1225C124.677 32.9425 124.457 33.6375 124.017 34.2075C123.587 34.7675 123.007 35.1825 122.277 35.4525C121.557 35.7225 120.762 35.8575 119.892 35.8575C118.962 35.8575 118.037 35.7075 117.117 35.4075C116.207 35.0975 115.432 34.6775 114.792 34.1475L116.352 31.5225C116.832 31.9825 117.452 32.3775 118.212 32.7075C118.982 33.0275 119.637 33.1875 120.177 33.1875C120.457 33.1875 120.677 33.1375 120.837 33.0375C120.997 32.9275 121.077 32.7675 121.077 32.5575C121.077 32.3275 120.947 32.1525 120.687 32.0325C120.427 31.9025 120.012 31.7625 119.442 31.6125C118.772 31.4325 118.212 31.2475 117.762 31.0575C117.322 30.8675 116.937 30.5775 116.607 30.1875C116.287 29.7875 116.127 29.2675 116.127 28.6275C116.127 27.8775 116.332 27.2175 116.742 26.6475C117.152 26.0775 117.722 25.6425 118.452 25.3425C119.192 25.0325 120.042 24.8775 121.002 24.8775ZM130.997 27.3375C131.857 27.3375 132.607 27.4975 133.247 27.8175C133.887 28.1275 134.377 28.5725 134.717 29.1525C135.067 29.7225 135.242 30.3825 135.242 31.1325C135.242 31.5025 135.197 31.8925 135.107 32.3025H129.677C129.787 32.9625 130.217 33.2925 130.967 33.2925C131.537 33.2925 132.087 33.0875 132.617 32.6775L134.357 34.3875C133.387 35.2975 132.217 35.7525 130.847 35.7525C129.937 35.7525 129.142 35.6025 128.462 35.3025C127.792 35.0025 127.272 34.5725 126.902 34.0125C126.542 33.4525 126.362 32.8025 126.362 32.0625C126.362 31.1625 126.557 30.3525 126.947 29.6325C127.347 28.9125 127.897 28.3525 128.597 27.9525C129.307 27.5425 130.107 27.3375 130.997 27.3375ZM131.972 30.7425C132.022 30.6125 132.047 30.4975 132.047 30.3975C132.047 30.1775 131.972 29.9925 131.822 29.8425C131.672 29.6925 131.477 29.6175 131.237 29.6175C130.977 29.6175 130.727 29.7225 130.487 29.9325C130.257 30.1325 130.067 30.4025 129.917 30.7425H131.972ZM141.498 28.5075C142.218 27.6975 143.098 27.2925 144.138 27.2925L143.748 30.3225C143.548 30.2925 143.363 30.2775 143.193 30.2775C142.583 30.2775 142.058 30.4275 141.618 30.7275C141.188 31.0175 140.928 31.3975 140.838 31.8675H140.823L140.073 35.6475H136.698L138.333 27.4425H141.708L141.498 28.5075ZM155.304 27.4425L150.639 35.6475H147.189L145.824 27.4425H149.244L149.499 32.5875L151.869 27.4425H155.304ZM160.558 27.4425L158.923 35.6475H155.548L157.183 27.4425H160.558ZM159.673 23.3925C160.103 23.3925 160.443 23.5225 160.693 23.7825C160.953 24.0325 161.083 24.3675 161.083 24.7875C161.083 25.1675 160.988 25.5125 160.798 25.8225C160.618 26.1325 160.368 26.3775 160.048 26.5575C159.728 26.7275 159.378 26.8125 158.998 26.8125C158.568 26.8125 158.223 26.6875 157.963 26.4375C157.713 26.1775 157.588 25.8375 157.588 25.4175C157.588 25.0375 157.678 24.6925 157.858 24.3825C158.048 24.0725 158.303 23.8325 158.623 23.6625C158.943 23.4825 159.293 23.3925 159.673 23.3925ZM165.927 35.7675C165.127 35.7675 164.432 35.6175 163.842 35.3175C163.252 35.0075 162.797 34.5725 162.477 34.0125C162.167 33.4425 162.012 32.7775 162.012 32.0175C162.012 31.0975 162.212 30.2825 162.612 29.5725C163.012 28.8525 163.572 28.2975 164.292 27.9075C165.022 27.5175 165.857 27.3225 166.797 27.3225C167.687 27.3225 168.452 27.5325 169.092 27.9525C169.732 28.3625 170.182 28.9425 170.442 29.6925L167.652 30.8325C167.482 30.3125 167.157 30.0525 166.677 30.0525C166.307 30.0525 166.007 30.2125 165.777 30.5325C165.547 30.8525 165.432 31.2725 165.432 31.7925C165.432 32.1925 165.512 32.5125 165.672 32.7525C165.842 32.9825 166.077 33.0975 166.377 33.0975C166.877 33.0975 167.242 32.8025 167.472 32.2125L170.067 33.4725C169.697 34.2025 169.147 34.7675 168.417 35.1675C167.697 35.5675 166.867 35.7675 165.927 35.7675ZM176.343 27.3375C177.203 27.3375 177.953 27.4975 178.593 27.8175C179.233 28.1275 179.723 28.5725 180.063 29.1525C180.413 29.7225 180.588 30.3825 180.588 31.1325C180.588 31.5025 180.543 31.8925 180.453 32.3025H175.023C175.133 32.9625 175.563 33.2925 176.313 33.2925C176.883 33.2925 177.433 33.0875 177.963 32.6775L179.703 34.3875C178.733 35.2975 177.563 35.7525 176.193 35.7525C175.283 35.7525 174.488 35.6025 173.808 35.3025C173.138 35.0025 172.618 34.5725 172.248 34.0125C171.888 33.4525 171.708 32.8025 171.708 32.0625C171.708 31.1625 171.903 30.3525 172.293 29.6325C172.693 28.9125 173.243 28.3525 173.943 27.9525C174.653 27.5425 175.453 27.3375 176.343 27.3375ZM177.318 30.7425C177.368 30.6125 177.393 30.4975 177.393 30.3975C177.393 30.1775 177.318 29.9925 177.168 29.8425C177.018 29.6925 176.823 29.6175 176.583 29.6175C176.323 29.6175 176.073 29.7225 175.833 29.9325C175.603 30.1325 175.413 30.4025 175.263 30.7425H177.318ZM186.169 35.7825C185.329 35.7825 184.519 35.6425 183.739 35.3625C182.959 35.0825 182.274 34.6875 181.684 34.1775L183.034 32.2575C183.544 32.6575 184.049 32.9675 184.549 33.1875C185.049 33.4075 185.504 33.5175 185.914 33.5175C186.284 33.5175 186.469 33.4075 186.469 33.1875C186.469 33.0975 186.399 33.0225 186.259 32.9625C186.129 32.8925 185.894 32.7925 185.554 32.6625C185.044 32.4725 184.609 32.2875 184.249 32.1075C183.899 31.9275 183.589 31.6775 183.319 31.3575C183.049 31.0275 182.914 30.6275 182.914 30.1575C182.914 29.6075 183.059 29.1175 183.349 28.6875C183.639 28.2575 184.044 27.9225 184.564 27.6825C185.094 27.4425 185.699 27.3225 186.379 27.3225C187.099 27.3225 187.824 27.4525 188.554 27.7125C189.294 27.9625 189.989 28.3225 190.639 28.7925L189.199 30.6825C188.669 30.3325 188.169 30.0575 187.699 29.8575C187.239 29.6575 186.854 29.5575 186.544 29.5575C186.404 29.5575 186.289 29.5875 186.199 29.6475C186.109 29.7075 186.064 29.7875 186.064 29.8875C186.064 29.9975 186.139 30.0925 186.289 30.1725C186.449 30.2525 186.714 30.3675 187.084 30.5175C187.594 30.7175 188.024 30.9075 188.374 31.0875C188.724 31.2675 189.029 31.5175 189.289 31.8375C189.549 32.1475 189.679 32.5375 189.679 33.0075C189.679 33.5475 189.529 34.0275 189.229 34.4475C188.939 34.8675 188.529 35.1975 187.999 35.4375C187.469 35.6675 186.859 35.7825 186.169 35.7825Z" fill="#FFCF00"/>
<path d="M92.6152 43.1162L95.5684 48.1201L98.5566 43.1162H98.9434L95.7266 48.4072V51.6475H95.4102V48.4072L92.1934 43.1162H92.6152ZM102.242 43.3857L99.1602 51.6475H98.8145L102.008 43.1162H102.312L102.242 43.3857ZM105.242 51.6475L102.16 43.3857L102.096 43.1162H102.395L105.588 51.6475H105.242ZM104.34 48.7822V49.0986H100.068V48.7822H104.34ZM112.074 49.6025C112.074 49.333 112.027 49.0928 111.934 48.8818C111.84 48.6709 111.689 48.4814 111.482 48.3135C111.275 48.1455 111.004 47.9912 110.668 47.8506C110.336 47.71 109.928 47.5732 109.443 47.4404C109.01 47.3232 108.619 47.1982 108.271 47.0654C107.924 46.9287 107.627 46.7725 107.381 46.5967C107.139 46.4209 106.953 46.2119 106.824 45.9697C106.695 45.7236 106.631 45.4287 106.631 45.085C106.631 44.7607 106.701 44.4697 106.842 44.2119C106.986 43.9541 107.186 43.7354 107.439 43.5557C107.697 43.376 107.998 43.2393 108.342 43.1455C108.686 43.0479 109.059 42.999 109.461 42.999C110.016 42.999 110.506 43.1045 110.932 43.3154C111.357 43.5264 111.691 43.8213 111.934 44.2002C112.18 44.5752 112.303 45.0146 112.303 45.5186H111.986C111.986 45.0967 111.881 44.7197 111.67 44.3877C111.459 44.0557 111.164 43.7939 110.785 43.6025C110.41 43.4111 109.969 43.3154 109.461 43.3154C108.926 43.3154 108.471 43.3975 108.096 43.5615C107.721 43.7256 107.436 43.9424 107.24 44.2119C107.045 44.4775 106.947 44.7646 106.947 45.0732C106.947 45.2998 106.986 45.5107 107.064 45.7061C107.146 45.9014 107.283 46.083 107.475 46.251C107.666 46.415 107.93 46.5713 108.266 46.7197C108.602 46.8643 109.023 47.0029 109.531 47.1357C109.953 47.2451 110.338 47.3682 110.686 47.5049C111.037 47.6416 111.34 47.8037 111.594 47.9912C111.852 48.1787 112.049 48.4033 112.186 48.665C112.326 48.9229 112.396 49.2314 112.396 49.5908C112.396 49.9385 112.32 50.2471 112.168 50.5166C112.02 50.7861 111.812 51.0146 111.547 51.2021C111.281 51.3857 110.973 51.5264 110.621 51.624C110.273 51.7178 109.9 51.7646 109.502 51.7646C109.139 51.7646 108.771 51.7217 108.4 51.6357C108.029 51.5498 107.689 51.4111 107.381 51.2197C107.072 51.0244 106.824 50.7646 106.637 50.4404C106.449 50.1162 106.355 49.7158 106.355 49.2393H106.672C106.672 49.665 106.76 50.0205 106.936 50.3057C107.111 50.5908 107.34 50.8174 107.621 50.9854C107.906 51.1494 108.213 51.2686 108.541 51.3428C108.873 51.4131 109.193 51.4482 109.502 51.4482C110.002 51.4482 110.445 51.3701 110.832 51.2139C111.219 51.0576 111.521 50.8408 111.74 50.5635C111.963 50.2861 112.074 49.9658 112.074 49.6025ZM122.047 49.6025C122.047 49.333 122 49.0928 121.906 48.8818C121.812 48.6709 121.662 48.4814 121.455 48.3135C121.248 48.1455 120.977 47.9912 120.641 47.8506C120.309 47.71 119.9 47.5732 119.416 47.4404C118.982 47.3232 118.592 47.1982 118.244 47.0654C117.896 46.9287 117.6 46.7725 117.354 46.5967C117.111 46.4209 116.926 46.2119 116.797 45.9697C116.668 45.7236 116.604 45.4287 116.604 45.085C116.604 44.7607 116.674 44.4697 116.814 44.2119C116.959 43.9541 117.158 43.7354 117.412 43.5557C117.67 43.376 117.971 43.2393 118.314 43.1455C118.658 43.0479 119.031 42.999 119.434 42.999C119.988 42.999 120.479 43.1045 120.904 43.3154C121.33 43.5264 121.664 43.8213 121.906 44.2002C122.152 44.5752 122.275 45.0146 122.275 45.5186H121.959C121.959 45.0967 121.854 44.7197 121.643 44.3877C121.432 44.0557 121.137 43.7939 120.758 43.6025C120.383 43.4111 119.941 43.3154 119.434 43.3154C118.898 43.3154 118.443 43.3975 118.068 43.5615C117.693 43.7256 117.408 43.9424 117.213 44.2119C117.018 44.4775 116.92 44.7646 116.92 45.0732C116.92 45.2998 116.959 45.5107 117.037 45.7061C117.119 45.9014 117.256 46.083 117.447 46.251C117.639 46.415 117.902 46.5713 118.238 46.7197C118.574 46.8643 118.996 47.0029 119.504 47.1357C119.926 47.2451 120.311 47.3682 120.658 47.5049C121.01 47.6416 121.312 47.8037 121.566 47.9912C121.824 48.1787 122.021 48.4033 122.158 48.665C122.299 48.9229 122.369 49.2314 122.369 49.5908C122.369 49.9385 122.293 50.2471 122.141 50.5166C121.992 50.7861 121.785 51.0146 121.52 51.2021C121.254 51.3857 120.945 51.5264 120.594 51.624C120.246 51.7178 119.873 51.7646 119.475 51.7646C119.111 51.7646 118.744 51.7217 118.373 51.6357C118.002 51.5498 117.662 51.4111 117.354 51.2197C117.045 51.0244 116.797 50.7646 116.609 50.4404C116.422 50.1162 116.328 49.7158 116.328 49.2393H116.645C116.645 49.665 116.732 50.0205 116.908 50.3057C117.084 50.5908 117.312 50.8174 117.594 50.9854C117.879 51.1494 118.186 51.2686 118.514 51.3428C118.846 51.4131 119.166 51.4482 119.475 51.4482C119.975 51.4482 120.418 51.3701 120.805 51.2139C121.191 51.0576 121.494 50.8408 121.713 50.5635C121.936 50.2861 122.047 49.9658 122.047 49.6025ZM129.23 51.3311V51.6475H124.15V51.3311H129.23ZM124.355 43.1162V51.6475H124.039V43.1162H124.355ZM128.633 47.1006V47.417H124.15V47.1006H128.633ZM129.23 43.1162V43.4326H124.15V43.1162H129.23ZM137.018 43.1162V51.6475H136.701L131.193 43.6553V51.6475H130.871V43.1162H131.193L136.701 51.0908V43.1162H137.018ZM144.559 51.3311V51.6475H139.479V51.3311H144.559ZM139.684 43.1162V51.6475H139.367V43.1162H139.684ZM143.961 47.1006V47.417H139.479V47.1006H143.961ZM144.559 43.1162V43.4326H139.479V43.1162H144.559ZM152.211 47.7803V50.7334C152.121 50.8623 151.951 51.0068 151.701 51.167C151.455 51.3271 151.131 51.4678 150.729 51.5889C150.33 51.7061 149.854 51.7646 149.299 51.7646C148.814 51.7646 148.371 51.6748 147.969 51.4951C147.566 51.3154 147.219 51.0596 146.926 50.7275C146.633 50.3916 146.406 49.9951 146.246 49.5381C146.09 49.0771 146.012 48.5693 146.012 48.0146V46.6201C146.012 46.0811 146.088 45.5908 146.24 45.1494C146.396 44.708 146.615 44.3271 146.896 44.0068C147.182 43.6826 147.52 43.4346 147.91 43.2627C148.301 43.0869 148.73 42.999 149.199 42.999C149.816 42.999 150.338 43.1064 150.764 43.3213C151.189 43.5361 151.521 43.8271 151.76 44.1943C152.002 44.5576 152.148 44.9678 152.199 45.4248H151.883C151.824 45.0537 151.697 44.708 151.502 44.3877C151.307 44.0674 151.021 43.8096 150.646 43.6143C150.275 43.415 149.793 43.3154 149.199 43.3154C148.766 43.3154 148.371 43.3975 148.016 43.5615C147.664 43.7217 147.361 43.9482 147.107 44.2412C146.857 44.5342 146.664 44.8818 146.527 45.2842C146.395 45.6865 146.328 46.1279 146.328 46.6084V48.0146C146.328 48.5186 146.396 48.9795 146.533 49.3975C146.674 49.8154 146.875 50.1787 147.137 50.4873C147.398 50.792 147.711 51.0283 148.074 51.1963C148.441 51.3643 148.85 51.4482 149.299 51.4482C149.764 51.4482 150.174 51.4014 150.529 51.3076C150.889 51.21 151.184 51.0947 151.414 50.9619C151.648 50.8252 151.809 50.7002 151.895 50.5869V48.1025H149.287V47.7803H152.211ZM156.887 43.3857L153.805 51.6475H153.459L156.652 43.1162H156.957L156.887 43.3857ZM159.887 51.6475L156.805 43.3857L156.74 43.1162H157.039L160.232 51.6475H159.887ZM158.984 48.7822V49.0986H154.713V48.7822H158.984ZM166.309 51.3311V51.6475H161.727V51.3311H166.309ZM161.932 43.1162V51.6475H161.609V43.1162H161.932Z" fill="white"/>
</svg>
