<svg width="482" height="466" viewBox="0 0 482 466" fill="none" xmlns="http://www.w3.org/2000/svg">
<path opacity="0.52" d="M97.62 150.852C170.93 129.384 250.73 120.495 327.642 124.131C379.925 126.602 400.938 167.459 390.161 202.319C376.292 247.204 331.479 323.517 289.861 370.663C256.074 408.941 202.138 407.079 166.513 374.087C145.603 354.719 125.733 334.145 107.056 312.378C89.3492 291.748 74.2591 272.307 59.6814 250.699C32.2064 209.956 49.2924 164.999 97.6227 150.841" fill="#FFD300" fill-opacity="0.4"/>
<path opacity="0.4" d="M109.989 163.874C171.882 145.75 239.255 138.245 304.189 141.315C348.33 143.401 366.07 177.895 356.972 207.326C345.263 245.221 307.428 309.65 272.292 349.453C243.766 381.77 198.231 380.198 168.154 352.344C150.5 335.992 133.725 318.623 117.956 300.245C103.007 282.828 90.2667 266.415 77.9592 248.172C54.763 213.774 69.1881 175.818 109.992 163.865" fill="#FFD300" fill-opacity="0.4"/>
<path opacity="0.6" d="M125.155 176.434C176.945 161.268 233.319 154.988 287.654 157.557C324.589 159.303 339.434 188.166 331.82 212.793C322.023 244.502 290.364 298.413 260.964 331.719C237.095 358.76 198.992 357.445 173.825 334.138C159.052 320.455 145.016 305.921 131.821 290.543C119.312 275.97 108.652 262.235 98.3534 246.971C78.9437 218.188 91.0141 186.428 125.157 176.426" fill="#FFD300" fill-opacity="0.4"/>
<path d="M143.238 191.577C184.584 179.47 229.591 174.457 272.969 176.507C302.456 177.901 314.308 200.944 308.23 220.605C300.408 245.92 275.133 288.96 251.661 315.55C232.605 337.139 202.186 336.089 182.093 317.481C170.3 306.558 159.093 294.954 148.559 282.678C138.573 271.043 130.062 260.078 121.84 247.891C106.344 224.912 115.981 199.556 143.239 191.571" fill="#FFD300" fill-opacity="0.4"/>
</svg>
