<svg width="367" height="110" viewBox="0 0 367 110" fill="none" xmlns="http://www.w3.org/2000/svg">
<path opacity="0.33" d="M31.2014 108.173C58.4395 100.807 85.2963 88.2011 108.836 72.1931C124.84 61.312 123.603 44.3206 113.497 35.3684C100.494 23.8431 71.6868 8.3478 49.5006 1.46353C31.4874 -4.12278 14.8448 6.88785 9.96455 24.2091C7.09929 34.3754 4.7945 44.7265 3.09593 55.2264C1.48506 65.1754 0.468966 74.242 0.0343162 83.9013C-0.787325 102.101 13.2473 113.032 31.2014 108.173Z" fill="white"/>
<path opacity="0.48" d="M33.1784 104.563C58.5788 97.6925 83.6226 85.9386 105.574 71.0112C120.499 60.864 119.344 45.0199 109.921 36.6719C97.7945 25.9243 70.932 11.4734 50.2422 5.05418C33.4453 -0.156663 17.9256 10.1107 13.3751 26.2635C10.7024 35.7437 8.55396 45.3973 6.96977 55.1881C5.46756 64.4662 4.5201 72.921 4.11405 81.9285C3.34769 98.9009 16.4349 109.094 33.1784 104.563Z" fill="#FFFFD0"/>
<path opacity="0.44" d="M34.9455 101.333C58.7007 94.9082 82.1241 83.9147 102.656 69.9518C116.614 60.4602 115.535 45.6434 106.722 37.8347C95.381 27.7828 70.257 14.2678 50.9056 8.26405C35.1953 3.39246 20.6802 12.9946 16.4252 28.1011C13.926 36.9675 11.9167 45.996 10.4335 55.1541C9.02856 63.8318 8.1421 71.7396 7.76273 80.1638C7.04594 96.0384 19.2867 105.572 34.9455 101.333Z" fill="white"/>
<path d="M37.3381 96.963C58.8685 91.1384 80.0996 81.1761 98.7076 68.5206C111.358 59.9191 110.38 46.4879 102.393 39.4112C92.1135 30.2989 69.342 18.0513 51.8035 12.6098C37.5649 8.19373 24.4091 16.8982 20.5507 30.5905C18.2859 38.6278 16.4634 46.81 15.1213 55.1104C13.8479 62.9762 13.0453 70.1426 12.7003 77.7778C12.0502 92.1657 23.1452 100.805 37.3381 96.9649V96.963Z" fill="#123274"/>
<path d="M66.0039 44.6391L65.7923 46.162C64.7152 44.9269 63.3273 44.2732 61.2227 44.2732C54.9946 44.2732 51.5956 50.0463 51.7233 56.2177C51.8358 61.5544 54.4723 63.8796 58.5157 63.8796C60.6603 63.8796 62.1816 63.2259 63.6133 61.9908L63.4417 63.5156H71.0862L73.6846 44.6372H66.0001L66.0039 44.6391ZM61.5277 58.9814C60.3534 58.9814 59.6462 58.0017 59.6061 55.9681C59.547 53.2083 60.6775 49.1791 62.8603 49.1791C64.0727 49.1791 64.7819 50.195 64.8257 52.301C64.8829 55.0246 63.7505 58.9795 61.5277 58.9795V58.9814Z" fill="#FFD100"/>
<path d="M82.696 49.9016C82.6865 49.3584 83.6511 49.1735 84.7854 49.1735C87.1302 49.1735 89.13 49.9721 90.4377 50.6258L91.1774 45.3597C89.7534 44.9233 87.6373 44.2695 84.6424 44.2695C78.7784 44.2695 74.5787 46.5929 74.6683 50.948C74.7903 56.8278 82.5473 56.2846 82.5778 57.8475C82.5873 58.3201 81.9888 58.6098 80.6943 58.6098C78.9977 58.6098 76.3574 58.1372 74.1002 56.6143L73.332 62.4236C75.6978 63.4395 78.2161 63.876 80.5609 63.876C86.7489 63.876 90.6951 61.1162 90.6055 56.7954C90.4797 50.8412 82.7265 51.3844 82.696 49.8959V49.9016Z" fill="#FFD100"/>
<path d="M38.2721 76.6184H45.7717L46.9842 71.1064H38.8917L38.2721 76.6184Z" fill="#FFD100"/>
<path d="M41.1259 57.6144L39.862 68.4687H46.866L52.8062 40.6553H43.3812V40.6629L43.2286 41.7112C41.6559 52.0433 39.4922 55.5026 38.2016 55.0013C35.7233 54.0369 37.3933 45.4335 38.7868 40.6553H29.4952C28.4048 44.389 27.7013 49.739 27.9682 53.1144C28.3133 57.4485 30.7782 61.3557 35.1304 61.3557C37.3685 61.3557 39.3911 60.1683 41.124 57.6144H41.1259Z" fill="#FFD100"/>
<path d="M151.221 29.97C152.901 29.97 154.371 30.19 155.631 30.63C156.891 31.07 157.861 31.69 158.541 32.49C159.221 33.29 159.561 34.22 159.561 35.28C159.561 36.32 159.241 37.25 158.601 38.07C157.961 38.89 157.101 39.46 156.021 39.78C157.281 40.06 158.291 40.69 159.051 41.67C159.811 42.63 160.191 43.77 160.191 45.09C160.191 46.27 159.841 47.31 159.141 48.21C158.441 49.11 157.451 49.8 156.171 50.28C154.911 50.76 153.431 51 151.731 51H140.571V29.97H151.221ZM150.831 38.07C151.311 38.07 151.691 37.93 151.971 37.65C152.271 37.37 152.421 37 152.421 36.54C152.421 36.1 152.271 35.75 151.971 35.49C151.691 35.21 151.311 35.07 150.831 35.07H147.501V38.07H150.831ZM150.831 45.9C151.471 45.9 151.981 45.75 152.361 45.45C152.761 45.13 152.961 44.72 152.961 44.22C152.961 43.76 152.761 43.39 152.361 43.11C151.981 42.83 151.471 42.69 150.831 42.69H147.501V45.9H150.831ZM179.56 45.66V51H163.09V46.62L170.41 39C170.87 38.52 171.24 38.04 171.52 37.56C171.82 37.08 171.97 36.67 171.97 36.33C171.97 35.97 171.85 35.7 171.61 35.52C171.37 35.32 171.02 35.22 170.56 35.22C169.78 35.22 168.89 35.46 167.89 35.94C166.89 36.42 165.87 37.08 164.83 37.92L162.25 32.91C165.45 30.73 168.58 29.64 171.64 29.64C173.08 29.64 174.38 29.88 175.54 30.36C176.7 30.84 177.61 31.51 178.27 32.37C178.93 33.23 179.26 34.21 179.26 35.31C179.26 36.45 178.9 37.6 178.18 38.76C177.46 39.92 176.45 41.15 175.15 42.45L171.91 45.66H179.56ZM193.936 29.97C195.616 29.97 197.086 30.19 198.346 30.63C199.606 31.07 200.576 31.69 201.256 32.49C201.936 33.29 202.276 34.22 202.276 35.28C202.276 36.32 201.956 37.25 201.316 38.07C200.676 38.89 199.816 39.46 198.736 39.78C199.996 40.06 201.006 40.69 201.766 41.67C202.526 42.63 202.906 43.77 202.906 45.09C202.906 46.27 202.556 47.31 201.856 48.21C201.156 49.11 200.166 49.8 198.886 50.28C197.626 50.76 196.146 51 194.446 51H183.286V29.97H193.936ZM193.546 38.07C194.026 38.07 194.406 37.93 194.686 37.65C194.986 37.37 195.136 37 195.136 36.54C195.136 36.1 194.986 35.75 194.686 35.49C194.406 35.21 194.026 35.07 193.546 35.07H190.216V38.07H193.546ZM193.546 45.9C194.186 45.9 194.696 45.75 195.076 45.45C195.476 45.13 195.676 44.72 195.676 44.22C195.676 43.76 195.476 43.39 195.076 43.11C194.696 42.83 194.186 42.69 193.546 42.69H190.216V45.9H193.546ZM226.211 38.19C225.591 37.33 224.841 36.64 223.961 36.12C223.101 35.58 222.261 35.31 221.441 35.31C220.621 35.31 219.871 35.53 219.191 35.97C218.531 36.39 218.011 36.98 217.631 37.74C217.271 38.5 217.091 39.36 217.091 40.32C217.091 41.28 217.271 42.15 217.631 42.93C218.011 43.69 218.531 44.29 219.191 44.73C219.871 45.17 220.621 45.39 221.441 45.39C222.201 45.39 223.011 45.17 223.871 44.73C224.751 44.27 225.531 43.67 226.211 42.93L230.231 47.22C229.051 48.52 227.631 49.56 225.971 50.34C224.331 51.1 222.701 51.48 221.081 51.48C218.961 51.48 217.051 51.01 215.351 50.07C213.671 49.11 212.351 47.79 211.391 46.11C210.431 44.41 209.951 42.51 209.951 40.41C209.951 38.33 210.441 36.47 211.421 34.83C212.401 33.17 213.751 31.87 215.471 30.93C217.211 29.99 219.171 29.52 221.351 29.52C222.951 29.52 224.561 29.88 226.181 30.6C227.801 31.3 229.151 32.24 230.231 33.42L226.211 38.19ZM239.582 34.35C241.442 34.35 243.072 34.7 244.472 35.4C245.872 36.08 246.952 37.06 247.712 38.34C248.472 39.6 248.852 41.08 248.852 42.78C248.852 44.48 248.472 45.97 247.712 47.25C246.952 48.51 245.872 49.49 244.472 50.19C243.072 50.89 241.442 51.24 239.582 51.24C237.722 51.24 236.092 50.89 234.692 50.19C233.292 49.49 232.212 48.51 231.452 47.25C230.692 45.97 230.312 44.48 230.312 42.78C230.312 41.08 230.692 39.6 231.452 38.34C232.212 37.06 233.292 36.08 234.692 35.4C236.092 34.7 237.722 34.35 239.582 34.35ZM239.582 39.69C238.842 39.69 238.242 39.98 237.782 40.56C237.342 41.14 237.122 41.91 237.122 42.87C237.122 43.83 237.342 44.6 237.782 45.18C238.242 45.76 238.842 46.05 239.582 46.05C240.322 46.05 240.912 45.76 241.352 45.18C241.812 44.6 242.042 43.83 242.042 42.87C242.042 41.91 241.812 41.14 241.352 40.56C240.912 39.98 240.322 39.69 239.582 39.69ZM263.085 40.53C260.645 39.33 258.795 38.73 257.535 38.73C257.255 38.73 257.025 38.78 256.845 38.88C256.685 38.98 256.605 39.11 256.605 39.27C256.605 39.51 256.785 39.71 257.145 39.87C257.505 40.03 258.105 40.22 258.945 40.44C260.125 40.76 261.135 41.09 261.975 41.43C262.815 41.77 263.545 42.29 264.165 42.99C264.805 43.69 265.125 44.6 265.125 45.72C265.125 46.84 264.815 47.82 264.195 48.66C263.595 49.5 262.735 50.15 261.615 50.61C260.495 51.07 259.185 51.3 257.685 51.3C254.625 51.3 251.955 50.52 249.675 48.96L251.715 44.76C253.915 46.12 255.935 46.8 257.775 46.8C258.095 46.8 258.345 46.76 258.525 46.68C258.705 46.58 258.795 46.46 258.795 46.32C258.795 46.1 258.615 45.92 258.255 45.78C257.915 45.62 257.355 45.44 256.575 45.24C255.395 44.94 254.395 44.62 253.575 44.28C252.755 43.94 252.025 43.42 251.385 42.72C250.765 42.02 250.455 41.1 250.455 39.96C250.455 38.82 250.755 37.83 251.355 36.99C251.955 36.13 252.795 35.47 253.875 35.01C254.975 34.53 256.245 34.29 257.685 34.29C260.305 34.29 262.845 34.98 265.305 36.36L263.085 40.53ZM279.218 50.28C278.678 50.6 277.968 50.85 277.088 51.03C276.228 51.21 275.348 51.3 274.448 51.3C272.608 51.3 271.128 50.8 270.008 49.8C268.908 48.78 268.358 47.42 268.358 45.72V39.75H266.108V35.49H268.358V30.9H275.078V35.49H278.918V39.75H275.078V44.7C275.078 45.14 275.198 45.49 275.438 45.75C275.678 45.99 275.998 46.1 276.398 46.08C276.778 46.08 277.338 45.94 278.078 45.66L279.218 50.28ZM298.177 34.59V51H291.427V48.72C290.887 49.56 290.207 50.2 289.387 50.64C288.567 51.08 287.637 51.3 286.597 51.3C285.477 51.3 284.487 51.04 283.627 50.52C282.767 50 282.087 49.27 281.587 48.33C281.107 47.39 280.867 46.3 280.867 45.06V34.59H287.617V43.11C287.617 43.79 287.777 44.34 288.097 44.76C288.437 45.16 288.877 45.36 289.417 45.36C290.037 45.36 290.527 45.12 290.887 44.64C291.247 44.16 291.427 43.52 291.427 42.72V34.59H298.177ZM323.793 34.29C324.913 34.29 325.913 34.55 326.793 35.07C327.673 35.59 328.353 36.32 328.833 37.26C329.333 38.2 329.583 39.29 329.583 40.53V51H322.833V42.48C322.833 41.8 322.663 41.26 322.323 40.86C321.983 40.44 321.533 40.23 320.973 40.23C320.353 40.23 319.853 40.47 319.473 40.95C319.093 41.43 318.903 42.07 318.903 42.87V51H312.153V42.48C312.153 41.8 311.983 41.26 311.643 40.86C311.303 40.44 310.853 40.23 310.293 40.23C309.673 40.23 309.173 40.47 308.793 40.95C308.413 41.43 308.223 42.07 308.223 42.87V51H301.473V34.59H308.223V36.9C308.783 36.06 309.473 35.42 310.293 34.98C311.133 34.52 312.073 34.29 313.113 34.29C314.353 34.29 315.433 34.6 316.353 35.22C317.293 35.84 317.983 36.7 318.423 37.8C318.963 36.68 319.683 35.82 320.583 35.22C321.503 34.6 322.573 34.29 323.793 34.29ZM340 34.35C341.8 34.35 343.36 34.72 344.68 35.46C346 36.2 347.01 37.26 347.71 38.64C348.41 40 348.76 41.6 348.76 43.44C348.76 43.82 348.75 44.11 348.73 44.31H338.05C338.27 44.95 338.61 45.44 339.07 45.78C339.55 46.1 340.12 46.26 340.78 46.26C341.96 46.26 343.07 45.77 344.11 44.79L347.62 48.24C346.74 49.22 345.67 49.97 344.41 50.49C343.17 50.99 341.76 51.24 340.18 51.24C338.34 51.24 336.74 50.9 335.38 50.22C334.04 49.52 333.01 48.54 332.29 47.28C331.59 46.02 331.24 44.55 331.24 42.87C331.24 41.15 331.6 39.65 332.32 38.37C333.04 37.09 334.06 36.1 335.38 35.4C336.72 34.7 338.26 34.35 340 34.35ZM341.98 41.19C342.02 40.51 341.85 39.95 341.47 39.51C341.11 39.07 340.64 38.85 340.06 38.85C339.5 38.85 339.03 39.06 338.65 39.48C338.29 39.9 338.04 40.47 337.9 41.19H341.98ZM357.618 36.99C358.198 36.13 358.908 35.47 359.748 35.01C360.608 34.53 361.568 34.29 362.628 34.29V40.38C362.188 40.32 361.758 40.29 361.338 40.29C360.178 40.29 359.268 40.55 358.608 41.07C357.948 41.57 357.618 42.27 357.618 43.17V51H350.868V34.59H357.618V36.99Z" fill="white"/>
<path d="M147.825 59.46C149.465 59.46 151.075 59.69 152.655 60.15C154.235 60.61 155.595 61.22 156.735 61.98L153.645 67.29C152.585 66.63 151.375 66.05 150.015 65.55C148.675 65.05 147.565 64.8 146.685 64.8C146.265 64.8 145.925 64.88 145.665 65.04C145.425 65.2 145.305 65.45 145.305 65.79C145.305 66.23 145.555 66.58 146.055 66.84C146.575 67.1 147.385 67.38 148.485 67.68C149.845 68.08 150.965 68.48 151.845 68.88C152.745 69.28 153.525 69.89 154.185 70.71C154.845 71.53 155.175 72.61 155.175 73.95C155.175 75.59 154.735 76.98 153.855 78.12C152.995 79.24 151.835 80.07 150.375 80.61C148.935 81.15 147.345 81.42 145.605 81.42C143.745 81.42 141.895 81.12 140.055 80.52C138.235 79.9 136.685 79.06 135.405 78L138.525 72.75C139.485 73.67 140.725 74.46 142.245 75.12C143.785 75.76 145.095 76.08 146.175 76.08C146.735 76.08 147.175 75.98 147.495 75.78C147.815 75.56 147.975 75.24 147.975 74.82C147.975 74.36 147.715 74.01 147.195 73.77C146.675 73.51 145.845 73.23 144.705 72.93C143.365 72.57 142.245 72.2 141.345 71.82C140.465 71.44 139.695 70.86 139.035 70.08C138.395 69.28 138.075 68.24 138.075 66.96C138.075 65.46 138.485 64.14 139.305 63C140.125 61.86 141.265 60.99 142.725 60.39C144.205 59.77 145.905 59.46 147.825 59.46ZM167.817 64.38C169.537 64.38 171.037 64.7 172.317 65.34C173.597 65.96 174.577 66.85 175.257 68.01C175.957 69.15 176.307 70.47 176.307 71.97C176.307 72.71 176.217 73.49 176.037 74.31H165.177C165.397 75.63 166.257 76.29 167.757 76.29C168.897 76.29 169.997 75.88 171.057 75.06L174.537 78.48C172.597 80.3 170.257 81.21 167.517 81.21C165.697 81.21 164.107 80.91 162.747 80.31C161.407 79.71 160.367 78.85 159.627 77.73C158.907 76.61 158.547 75.31 158.547 73.83C158.547 72.03 158.937 70.41 159.717 68.97C160.517 67.53 161.617 66.41 163.017 65.61C164.437 64.79 166.037 64.38 167.817 64.38ZM169.767 71.19C169.867 70.93 169.917 70.7 169.917 70.5C169.917 70.06 169.767 69.69 169.467 69.39C169.167 69.09 168.777 68.94 168.297 68.94C167.777 68.94 167.277 69.15 166.797 69.57C166.337 69.97 165.957 70.51 165.657 71.19H169.767ZM190.558 58.74L186.118 81H179.368L183.808 58.74H190.558ZM205.249 63.66C204.729 63.66 204.259 63.83 203.839 64.17C203.419 64.49 203.159 64.87 203.059 65.31L203.029 65.49H206.179L205.339 69.75H202.159L199.909 81H193.189L195.439 69.75H193.189L194.029 65.49H196.279L196.639 63.75C196.979 62.07 197.799 60.77 199.099 59.85C200.419 58.91 202.059 58.44 204.019 58.44C205.439 58.44 206.819 58.67 208.159 59.13L206.569 63.93C206.329 63.85 206.089 63.79 205.849 63.75C205.609 63.69 205.409 63.66 205.249 63.66ZM227.091 59.46C228.731 59.46 230.341 59.69 231.921 60.15C233.501 60.61 234.861 61.22 236.001 61.98L232.911 67.29C231.851 66.63 230.641 66.05 229.281 65.55C227.941 65.05 226.831 64.8 225.951 64.8C225.531 64.8 225.191 64.88 224.931 65.04C224.691 65.2 224.571 65.45 224.571 65.79C224.571 66.23 224.821 66.58 225.321 66.84C225.841 67.1 226.651 67.38 227.751 67.68C229.111 68.08 230.231 68.48 231.111 68.88C232.011 69.28 232.791 69.89 233.451 70.71C234.111 71.53 234.441 72.61 234.441 73.95C234.441 75.59 234.001 76.98 233.121 78.12C232.261 79.24 231.101 80.07 229.641 80.61C228.201 81.15 226.611 81.42 224.871 81.42C223.011 81.42 221.161 81.12 219.321 80.52C217.501 79.9 215.951 79.06 214.671 78L217.791 72.75C218.751 73.67 219.991 74.46 221.511 75.12C223.051 75.76 224.361 76.08 225.441 76.08C226.001 76.08 226.441 75.98 226.761 75.78C227.081 75.56 227.241 75.24 227.241 74.82C227.241 74.36 226.981 74.01 226.461 73.77C225.941 73.51 225.111 73.23 223.971 72.93C222.631 72.57 221.511 72.2 220.611 71.82C219.731 71.44 218.961 70.86 218.301 70.08C217.661 69.28 217.341 68.24 217.341 66.96C217.341 65.46 217.751 64.14 218.571 63C219.391 61.86 220.531 60.99 221.991 60.39C223.471 59.77 225.171 59.46 227.091 59.46ZM247.082 64.38C248.802 64.38 250.302 64.7 251.582 65.34C252.862 65.96 253.842 66.85 254.522 68.01C255.222 69.15 255.572 70.47 255.572 71.97C255.572 72.71 255.482 73.49 255.302 74.31H244.442C244.662 75.63 245.522 76.29 247.022 76.29C248.162 76.29 249.262 75.88 250.322 75.06L253.802 78.48C251.862 80.3 249.522 81.21 246.782 81.21C244.962 81.21 243.372 80.91 242.012 80.31C240.672 79.71 239.632 78.85 238.892 77.73C238.172 76.61 237.812 75.31 237.812 73.83C237.812 72.03 238.202 70.41 238.982 68.97C239.782 67.53 240.882 66.41 242.282 65.61C243.702 64.79 245.302 64.38 247.082 64.38ZM249.032 71.19C249.132 70.93 249.182 70.7 249.182 70.5C249.182 70.06 249.032 69.69 248.732 69.39C248.432 69.09 248.042 68.94 247.562 68.94C247.042 68.94 246.542 69.15 246.062 69.57C245.602 69.97 245.222 70.51 244.922 71.19H249.032ZM268.084 66.72C269.524 65.1 271.284 64.29 273.364 64.29L272.584 70.35C272.184 70.29 271.814 70.26 271.474 70.26C270.254 70.26 269.204 70.56 268.324 71.16C267.464 71.74 266.944 72.5 266.764 73.44H266.734L265.234 81H258.484L261.754 64.59H268.504L268.084 66.72ZM295.695 64.59L286.365 81H279.465L276.735 64.59H283.575L284.085 74.88L288.825 64.59H295.695ZM306.204 64.59L302.934 81H296.184L299.454 64.59H306.204ZM304.434 56.49C305.294 56.49 305.974 56.75 306.474 57.27C306.994 57.77 307.254 58.44 307.254 59.28C307.254 60.04 307.064 60.73 306.684 61.35C306.324 61.97 305.824 62.46 305.184 62.82C304.544 63.16 303.844 63.33 303.084 63.33C302.224 63.33 301.534 63.08 301.014 62.58C300.514 62.06 300.264 61.38 300.264 60.54C300.264 59.78 300.444 59.09 300.804 58.47C301.184 57.85 301.694 57.37 302.334 57.03C302.974 56.67 303.674 56.49 304.434 56.49ZM316.942 81.24C315.342 81.24 313.952 80.94 312.772 80.34C311.592 79.72 310.682 78.85 310.042 77.73C309.422 76.59 309.112 75.26 309.112 73.74C309.112 71.9 309.512 70.27 310.312 68.85C311.112 67.41 312.232 66.3 313.672 65.52C315.132 64.74 316.802 64.35 318.682 64.35C320.462 64.35 321.992 64.77 323.272 65.61C324.552 66.43 325.452 67.59 325.972 69.09L320.392 71.37C320.052 70.33 319.402 69.81 318.442 69.81C317.702 69.81 317.102 70.13 316.642 70.77C316.182 71.41 315.952 72.25 315.952 73.29C315.952 74.09 316.112 74.73 316.432 75.21C316.772 75.67 317.242 75.9 317.842 75.9C318.842 75.9 319.572 75.31 320.032 74.13L325.222 76.65C324.482 78.11 323.382 79.24 321.922 80.04C320.482 80.84 318.822 81.24 316.942 81.24ZM337.774 64.38C339.494 64.38 340.994 64.7 342.274 65.34C343.554 65.96 344.534 66.85 345.214 68.01C345.914 69.15 346.264 70.47 346.264 71.97C346.264 72.71 346.174 73.49 345.994 74.31H335.134C335.354 75.63 336.214 76.29 337.714 76.29C338.854 76.29 339.954 75.88 341.014 75.06L344.494 78.48C342.554 80.3 340.214 81.21 337.474 81.21C335.654 81.21 334.064 80.91 332.704 80.31C331.364 79.71 330.324 78.85 329.584 77.73C328.864 76.61 328.504 75.31 328.504 73.83C328.504 72.03 328.894 70.41 329.674 68.97C330.474 67.53 331.574 66.41 332.974 65.61C334.394 64.79 335.994 64.38 337.774 64.38ZM339.724 71.19C339.824 70.93 339.874 70.7 339.874 70.5C339.874 70.06 339.724 69.69 339.424 69.39C339.124 69.09 338.734 68.94 338.254 68.94C337.734 68.94 337.234 69.15 336.754 69.57C336.294 69.97 335.914 70.51 335.614 71.19H339.724ZM357.425 81.27C355.745 81.27 354.125 80.99 352.565 80.43C351.005 79.87 349.635 79.08 348.455 78.06L351.155 74.22C352.175 75.02 353.185 75.64 354.185 76.08C355.185 76.52 356.095 76.74 356.915 76.74C357.655 76.74 358.025 76.52 358.025 76.08C358.025 75.9 357.885 75.75 357.605 75.63C357.345 75.49 356.875 75.29 356.195 75.03C355.175 74.65 354.305 74.28 353.585 73.92C352.885 73.56 352.265 73.06 351.725 72.42C351.185 71.76 350.915 70.96 350.915 70.02C350.915 68.92 351.205 67.94 351.785 67.08C352.365 66.22 353.175 65.55 354.215 65.07C355.275 64.59 356.485 64.35 357.845 64.35C359.285 64.35 360.735 64.61 362.195 65.13C363.675 65.63 365.065 66.35 366.365 67.29L363.485 71.07C362.425 70.37 361.425 69.82 360.485 69.42C359.565 69.02 358.795 68.82 358.175 68.82C357.895 68.82 357.665 68.88 357.485 69C357.305 69.12 357.215 69.28 357.215 69.48C357.215 69.7 357.365 69.89 357.665 70.05C357.985 70.21 358.515 70.44 359.255 70.74C360.275 71.14 361.135 71.52 361.835 71.88C362.535 72.24 363.145 72.74 363.665 73.38C364.185 74 364.445 74.78 364.445 75.72C364.445 76.8 364.145 77.76 363.545 78.6C362.965 79.44 362.145 80.1 361.085 80.58C360.025 81.04 358.805 81.27 357.425 81.27Z" fill="#FFCF00"/>
</svg>
